<svg xmlns="http://www.w3.org/2000/svg" xmlns:xlink="http://www.w3.org/1999/xlink" width="840" height="191.97"><rect width="840" height="191.97" rx="0" ry="0" class="a"></rect><svg height="151.97" viewBox="0 0 80 15.197" width="800" x="20" xmlns="http://www.w3.org/2000/svg" xmlns:xlink="http://www.w3.org/1999/xlink" y="20"><style>.a{fill:rgb(22,27,34)}.b{font-family:'Fira Code',Monaco,Consolas,Menlo,'Bitstream Vera Sans Mono','Powerline Symbols',monospace}.c{fill:transparent}.d{fill:rgb(201,209,217);white-space:pre}</style><g font-family="&#x27;Fira Code&#x27;,Monaco,Consolas,Menlo,&#x27;Bitstream Vera Sans Mono&#x27;,&#x27;Powerline Symbols&#x27;,monospace" font-size="1.67" class="b"><defs><symbol id="a"><rect height="7" width="80" x="0" y="0" class="c"></rect></symbol></defs><rect height="15.197" width="80" class="a"></rect><svg x="0" y="0" width="80"><svg x="0"><use xlink:href="#a"></use><text font-size="1.67" x="0" y="1.67" class="d">[1]</text><text font-size="1.67" x="4.008" y="1.67" class="d">&quot;(document</text><text font-size="1.67" x="15.029999999999998" y="1.67" class="d">(comment)</text><text font-size="1.67" x="25.05" y="1.67" class="d">(object</text><text font-size="1.67" x="33.065999999999995" y="1.67" class="d">(pair</text><text font-size="1.67" x="39.077999999999996" y="1.67" class="d">key:</text><text font-size="1.67" x="44.087999999999994" y="1.67" class="d">(string</text><text font-size="1.67" x="52.104" y="1.67" class="d">(string_content))</text><text font-size="1.67" x="70.13999999999999" y="1.67" class="d">value:</text><text font-size="1.67" x="77.154" y="1.67" class="d">(ob</text><text font-size="1.67" x="0" y="3.8409999999999997" class="d">ject</text><text font-size="1.67" x="5.01" y="3.8409999999999997" class="d">(pair</text><text font-size="1.67" x="11.021999999999998" y="3.8409999999999997" class="d">key:</text><text font-size="1.67" x="16.032" y="3.8409999999999997" class="d">(string</text><text font-size="1.67" x="24.048" y="3.8409999999999997" class="d">(string_content))</text><text font-size="1.67" x="42.083999999999996" y="3.8409999999999997" class="d">value:</text><text font-size="1.67" x="49.098" y="3.8409999999999997" class="d">(array</text><text font-size="1.67" x="56.111999999999995" y="3.8409999999999997" class="d">(number)</text><text font-size="1.67" x="65.13" y="3.8409999999999997" class="d">(number)</text><text font-size="1.67" x="74.148" y="3.8409999999999997" class="d">(numbe</text><text font-size="1.67" x="0" y="6.012" class="d">r)))</text><text font-size="1.67" x="5.01" y="6.012" class="d">(comment)</text><text font-size="1.67" x="15.029999999999998" y="6.012" class="d">(pair</text><text font-size="1.67" x="21.041999999999998" y="6.012" class="d">key:</text><text font-size="1.67" x="26.052" y="6.012" class="d">(string</text><text font-size="1.67" x="34.068" y="6.012" class="d">(string_content))</text><text font-size="1.67" x="52.104" y="6.012" class="d">value:</text><text font-size="1.67" x="59.117999999999995" y="6.012" class="d">(string</text><text font-size="1.67" x="67.134" y="6.012" class="d">(string_conte</text><text font-size="1.67" x="0" y="8.183" class="d">nt)))))</text><text font-size="1.67" x="8.016" y="8.183" class="d">(pair</text><text font-size="1.67" x="14.027999999999999" y="8.183" class="d">key:</text><text font-size="1.67" x="19.037999999999997" y="8.183" class="d">(string</text><text font-size="1.67" x="27.054" y="8.183" class="d">(string_content))</text><text font-size="1.67" x="45.089999999999996" y="8.183" class="d">value:</text><text font-size="1.67" x="52.104" y="8.183" class="d">(array</text><text font-size="1.67" x="59.117999999999995" y="8.183" class="d">(object</text><text font-size="1.67" x="67.134" y="8.183" class="d">(pair</text><text font-size="1.67" x="73.146" y="8.183" class="d">key:</text><text font-size="1.67" x="78.15599999999999" y="8.183" class="d">(s</text><text font-size="1.67" x="0" y="10.354" class="d">tring</text><text font-size="1.67" x="6.012" y="10.354" class="d">(string_content))</text><text font-size="1.67" x="24.048" y="10.354" class="d">value:</text><text font-size="1.67" x="31.061999999999998" y="10.354" class="d">(true))</text><text font-size="1.67" x="39.077999999999996" y="10.354" class="d">(pair</text><text font-size="1.67" x="45.089999999999996" y="10.354" class="d">key:</text><text font-size="1.67" x="50.1" y="10.354" class="d">(string</text><text font-size="1.67" x="58.116" y="10.354" class="d">(string_content))</text><text font-size="1.67" x="76.15199999999999" y="10.354" class="d">valu</text><text font-size="1.67" x="0" y="12.525" class="d">e:</text><text font-size="1.67" x="3.006" y="12.525" class="d">(false)))</text><text font-size="1.67" x="13.026" y="12.525" class="d">(object</text><text font-size="1.67" x="21.041999999999998" y="12.525" class="d">(pair</text><text font-size="1.67" x="27.054" y="12.525" class="d">key:</text><text font-size="1.67" x="32.064" y="12.525" class="d">(string</text><text font-size="1.67" x="40.08" y="12.525" class="d">(string_content))</text><text font-size="1.67" x="58.116" y="12.525" class="d">value:</text><text font-size="1.67" x="65.13" y="12.525" class="d">(false))</text><text font-size="1.67" x="74.148" y="12.525" class="d">(pair</text><text font-size="1.67" x="0" y="14.696" class="d">key:</text><text font-size="1.67" x="5.01" y="14.696" class="d">(string</text><text font-size="1.67" x="13.026" y="14.696" class="d">(string_content))</text><text font-size="1.67" x="31.061999999999998" y="14.696" class="d">value:</text><text font-size="1.67" x="38.07599999999999" y="14.696" class="d">(false)))))))&quot;</text></svg></svg></g></svg></svg>