<svg xmlns="http://www.w3.org/2000/svg" xmlns:xlink="http://www.w3.org/1999/xlink" width="840" height="1928.77"><rect width="840" height="1928.77" rx="0" ry="0" class="a"></rect><svg height="1888.77" viewBox="0 0 80 188.877" width="800" x="20" xmlns="http://www.w3.org/2000/svg" xmlns:xlink="http://www.w3.org/1999/xlink" y="20"><style>.a{fill:rgb(247,247,247)}.b{font-family:'Fira Code',Monaco,Consolas,Menlo,'Bitstream Vera Sans Mono','Powerline Symbols',monospace}.c{fill:transparent}.d{fill:rgb(101,123,131);white-space:pre}</style><g font-family="&#x27;Fira Code&#x27;,Monaco,Consolas,Menlo,&#x27;Bitstream Vera Sans Mono&#x27;,&#x27;Powerline Symbols&#x27;,monospace" font-size="1.67" class="b"><defs><symbol id="a"><rect height="87" width="80" x="0" y="0" class="c"></rect></symbol></defs><rect height="188.877" width="80" class="a"></rect><svg x="0" y="0" width="80"><svg x="0"><use xlink:href="#a"></use><text font-size="1.67" x="0" y="1.67" class="d">document</text><text font-size="1.67" x="9.017999999999999" y="1.67" class="d">(1)</text><text font-size="1.67" x="38.07599999999999" y="1.67" class="d">2|</text><text font-size="1.67" x="0" y="3.8409999999999997" class="d">├─comment</text><text font-size="1.67" x="10.02" y="3.8409999999999997" class="d">(2)</text><text font-size="1.67" x="39.077999999999996" y="3.8409999999999997" class="d">|//</text><text font-size="1.67" x="43.086" y="3.8409999999999997" class="d">this</text><text font-size="1.67" x="48.096" y="3.8409999999999997" class="d">is</text><text font-size="1.67" x="51.102" y="3.8409999999999997" class="d">a</text><text font-size="1.67" x="53.105999999999995" y="3.8409999999999997" class="d">comment</text><text font-size="1.67" x="0" y="6.012" class="d">└─object</text><text font-size="1.67" x="9.017999999999999" y="6.012" class="d">(3)</text><text font-size="1.67" x="38.07599999999999" y="6.012" class="d">3|</text><text font-size="1.67" x="2.004" y="8.183" class="d">├─{</text><text font-size="1.67" x="6.012" y="8.183" class="d">(4)</text><text font-size="1.67" x="39.077999999999996" y="8.183" class="d">|{</text><text font-size="1.67" x="2.004" y="10.354" class="d">├─pair</text><text font-size="1.67" x="9.017999999999999" y="10.354" class="d">(5)</text><text font-size="1.67" x="38.07599999999999" y="10.354" class="d">4|</text><text font-size="1.67" x="2.004" y="12.525" class="d">│</text><text font-size="1.67" x="4.008" y="12.525" class="d">├─string</text><text font-size="1.67" x="13.026" y="12.525" class="d">(6)</text><text font-size="1.67" x="39.077999999999996" y="12.525" class="d">|</text><text font-size="1.67" x="2.004" y="14.696" class="d">│</text><text font-size="1.67" x="4.008" y="14.696" class="d">│</text><text font-size="1.67" x="6.012" y="14.696" class="d">├─&quot;</text><text font-size="1.67" x="10.02" y="14.696" class="d">(7)</text><text font-size="1.67" x="39.077999999999996" y="14.696" class="d">|</text><text font-size="1.67" x="42.083999999999996" y="14.696" class="d">&quot;</text><text font-size="1.67" x="2.004" y="16.866999999999997" class="d">│</text><text font-size="1.67" x="4.008" y="16.866999999999997" class="d">│</text><text font-size="1.67" x="6.012" y="16.866999999999997" class="d">├─string_content</text><text font-size="1.67" x="23.045999999999996" y="16.866999999999997" class="d">(8)</text><text font-size="1.67" x="39.077999999999996" y="16.866999999999997" class="d">|</text><text font-size="1.67" x="43.086" y="16.866999999999997" class="d">a</text><text font-size="1.67" x="2.004" y="19.037999999999997" class="d">│</text><text font-size="1.67" x="4.008" y="19.037999999999997" class="d">│</text><text font-size="1.67" x="6.012" y="19.037999999999997" class="d">└─&quot;</text><text font-size="1.67" x="10.02" y="19.037999999999997" class="d">(9)</text><text font-size="1.67" x="39.077999999999996" y="19.037999999999997" class="d">|</text><text font-size="1.67" x="44.087999999999994" y="19.037999999999997" class="d">&quot;</text><text font-size="1.67" x="2.004" y="21.209000000000003" class="d">│</text><text font-size="1.67" x="4.008" y="21.209000000000003" class="d">├─:</text><text font-size="1.67" x="8.016" y="21.209000000000003" class="d">(10)</text><text font-size="1.67" x="39.077999999999996" y="21.209000000000003" class="d">|</text><text font-size="1.67" x="45.089999999999996" y="21.209000000000003" class="d">:</text><text font-size="1.67" x="2.004" y="23.380000000000003" class="d">│</text><text font-size="1.67" x="4.008" y="23.380000000000003" class="d">└─object</text><text font-size="1.67" x="13.026" y="23.380000000000003" class="d">(11)</text><text font-size="1.67" x="39.077999999999996" y="23.380000000000003" class="d">|</text><text font-size="1.67" x="2.004" y="25.550999999999995" class="d">│</text><text font-size="1.67" x="6.012" y="25.550999999999995" class="d">├─{</text><text font-size="1.67" x="10.02" y="25.550999999999995" class="d">(12)</text><text font-size="1.67" x="39.077999999999996" y="25.550999999999995" class="d">|</text><text font-size="1.67" x="47.093999999999994" y="25.550999999999995" class="d">{</text><text font-size="1.67" x="2.004" y="27.722" class="d">│</text><text font-size="1.67" x="6.012" y="27.722" class="d">├─pair</text><text font-size="1.67" x="13.026" y="27.722" class="d">(13)</text><text font-size="1.67" x="38.07599999999999" y="27.722" class="d">5|</text><text font-size="1.67" x="2.004" y="29.893" class="d">│</text><text font-size="1.67" x="6.012" y="29.893" class="d">│</text><text font-size="1.67" x="8.016" y="29.893" class="d">├─string</text><text font-size="1.67" x="17.034" y="29.893" class="d">(14)</text><text font-size="1.67" x="39.077999999999996" y="29.893" class="d">|</text><text font-size="1.67" x="2.004" y="32.064" class="d">│</text><text font-size="1.67" x="6.012" y="32.064" class="d">│</text><text font-size="1.67" x="8.016" y="32.064" class="d">│</text><text font-size="1.67" x="10.02" y="32.064" class="d">├─&quot;</text><text font-size="1.67" x="14.027999999999999" y="32.064" class="d">(15)</text><text font-size="1.67" x="39.077999999999996" y="32.064" class="d">|</text><text font-size="1.67" x="44.087999999999994" y="32.064" class="d">&quot;</text><text font-size="1.67" x="2.004" y="34.235" class="d">│</text><text font-size="1.67" x="6.012" y="34.235" class="d">│</text><text font-size="1.67" x="8.016" y="34.235" class="d">│</text><text font-size="1.67" x="10.02" y="34.235" class="d">├─string_content</text><text font-size="1.67" x="27.054" y="34.235" class="d">(16)</text><text font-size="1.67" x="39.077999999999996" y="34.235" class="d">|</text><text font-size="1.67" x="45.089999999999996" y="34.235" class="d">a1</text><text font-size="1.67" x="2.004" y="36.406" class="d">│</text><text font-size="1.67" x="6.012" y="36.406" class="d">│</text><text font-size="1.67" x="8.016" y="36.406" class="d">│</text><text font-size="1.67" x="10.02" y="36.406" class="d">└─&quot;</text><text font-size="1.67" x="14.027999999999999" y="36.406" class="d">(17)</text><text font-size="1.67" x="39.077999999999996" y="36.406" class="d">|</text><text font-size="1.67" x="47.093999999999994" y="36.406" class="d">&quot;</text><text font-size="1.67" x="2.004" y="38.577000000000005" class="d">│</text><text font-size="1.67" x="6.012" y="38.577000000000005" class="d">│</text><text font-size="1.67" x="8.016" y="38.577000000000005" class="d">├─:</text><text font-size="1.67" x="12.024" y="38.577000000000005" class="d">(18)</text><text font-size="1.67" x="39.077999999999996" y="38.577000000000005" class="d">|</text><text font-size="1.67" x="48.096" y="38.577000000000005" class="d">:</text><text font-size="1.67" x="2.004" y="40.748000000000005" class="d">│</text><text font-size="1.67" x="6.012" y="40.748000000000005" class="d">│</text><text font-size="1.67" x="8.016" y="40.748000000000005" class="d">└─array</text><text font-size="1.67" x="16.032" y="40.748000000000005" class="d">(19)</text><text font-size="1.67" x="39.077999999999996" y="40.748000000000005" class="d">|</text><text font-size="1.67" x="2.004" y="42.919" class="d">│</text><text font-size="1.67" x="6.012" y="42.919" class="d">│</text><text font-size="1.67" x="10.02" y="42.919" class="d">├─[</text><text font-size="1.67" x="14.027999999999999" y="42.919" class="d">(20)</text><text font-size="1.67" x="39.077999999999996" y="42.919" class="d">|</text><text font-size="1.67" x="50.1" y="42.919" class="d">[</text><text font-size="1.67" x="2.004" y="45.09" class="d">│</text><text font-size="1.67" x="6.012" y="45.09" class="d">│</text><text font-size="1.67" x="10.02" y="45.09" class="d">├─number</text><text font-size="1.67" x="19.037999999999997" y="45.09" class="d">(21)</text><text font-size="1.67" x="39.077999999999996" y="45.09" class="d">|</text><text font-size="1.67" x="51.102" y="45.09" class="d">1</text><text font-size="1.67" x="2.004" y="47.261" class="d">│</text><text font-size="1.67" x="6.012" y="47.261" class="d">│</text><text font-size="1.67" x="10.02" y="47.261" class="d">├─,</text><text font-size="1.67" x="14.027999999999999" y="47.261" class="d">(22)</text><text font-size="1.67" x="39.077999999999996" y="47.261" class="d">|</text><text font-size="1.67" x="52.104" y="47.261" class="d">,</text><text font-size="1.67" x="2.004" y="49.431999999999995" class="d">│</text><text font-size="1.67" x="6.012" y="49.431999999999995" class="d">│</text><text font-size="1.67" x="10.02" y="49.431999999999995" class="d">├─number</text><text font-size="1.67" x="19.037999999999997" y="49.431999999999995" class="d">(23)</text><text font-size="1.67" x="39.077999999999996" y="49.431999999999995" class="d">|</text><text font-size="1.67" x="54.108" y="49.431999999999995" class="d">2</text><text font-size="1.67" x="2.004" y="51.603" class="d">│</text><text font-size="1.67" x="6.012" y="51.603" class="d">│</text><text font-size="1.67" x="10.02" y="51.603" class="d">├─,</text><text font-size="1.67" x="14.027999999999999" y="51.603" class="d">(24)</text><text font-size="1.67" x="39.077999999999996" y="51.603" class="d">|</text><text font-size="1.67" x="55.10999999999999" y="51.603" class="d">,</text><text font-size="1.67" x="2.004" y="53.774" class="d">│</text><text font-size="1.67" x="6.012" y="53.774" class="d">│</text><text font-size="1.67" x="10.02" y="53.774" class="d">├─number</text><text font-size="1.67" x="19.037999999999997" y="53.774" class="d">(25)</text><text font-size="1.67" x="39.077999999999996" y="53.774" class="d">|</text><text font-size="1.67" x="57.114" y="53.774" class="d">3</text><text font-size="1.67" x="2.004" y="55.945" class="d">│</text><text font-size="1.67" x="6.012" y="55.945" class="d">│</text><text font-size="1.67" x="10.02" y="55.945" class="d">└─]</text><text font-size="1.67" x="14.027999999999999" y="55.945" class="d">(26)</text><text font-size="1.67" x="39.077999999999996" y="55.945" class="d">|</text><text font-size="1.67" x="58.116" y="55.945" class="d">]</text><text font-size="1.67" x="2.004" y="58.11600000000001" class="d">│</text><text font-size="1.67" x="6.012" y="58.11600000000001" class="d">├─,</text><text font-size="1.67" x="10.02" y="58.11600000000001" class="d">(27)</text><text font-size="1.67" x="39.077999999999996" y="58.11600000000001" class="d">|</text><text font-size="1.67" x="59.117999999999995" y="58.11600000000001" class="d">,</text><text font-size="1.67" x="2.004" y="60.287" class="d">│</text><text font-size="1.67" x="6.012" y="60.287" class="d">├─comment</text><text font-size="1.67" x="16.032" y="60.287" class="d">(28)</text><text font-size="1.67" x="38.07599999999999" y="60.287" class="d">6|</text><text font-size="1.67" x="44.087999999999994" y="60.287" class="d">//</text><text font-size="1.67" x="47.093999999999994" y="60.287" class="d">comment</text><text font-size="1.67" x="2.004" y="62.458" class="d">│</text><text font-size="1.67" x="6.012" y="62.458" class="d">├─pair</text><text font-size="1.67" x="13.026" y="62.458" class="d">(29)</text><text font-size="1.67" x="38.07599999999999" y="62.458" class="d">7|</text><text font-size="1.67" x="2.004" y="64.629" class="d">│</text><text font-size="1.67" x="6.012" y="64.629" class="d">│</text><text font-size="1.67" x="8.016" y="64.629" class="d">├─string</text><text font-size="1.67" x="17.034" y="64.629" class="d">(30)</text><text font-size="1.67" x="39.077999999999996" y="64.629" class="d">|</text><text font-size="1.67" x="2.004" y="66.8" class="d">│</text><text font-size="1.67" x="6.012" y="66.8" class="d">│</text><text font-size="1.67" x="8.016" y="66.8" class="d">│</text><text font-size="1.67" x="10.02" y="66.8" class="d">├─&quot;</text><text font-size="1.67" x="14.027999999999999" y="66.8" class="d">(31)</text><text font-size="1.67" x="39.077999999999996" y="66.8" class="d">|</text><text font-size="1.67" x="44.087999999999994" y="66.8" class="d">&quot;</text><text font-size="1.67" x="2.004" y="68.971" class="d">│</text><text font-size="1.67" x="6.012" y="68.971" class="d">│</text><text font-size="1.67" x="8.016" y="68.971" class="d">│</text><text font-size="1.67" x="10.02" y="68.971" class="d">├─string_content</text><text font-size="1.67" x="27.054" y="68.971" class="d">(32)</text><text font-size="1.67" x="39.077999999999996" y="68.971" class="d">|</text><text font-size="1.67" x="45.089999999999996" y="68.971" class="d">a2</text><text font-size="1.67" x="2.004" y="71.142" class="d">│</text><text font-size="1.67" x="6.012" y="71.142" class="d">│</text><text font-size="1.67" x="8.016" y="71.142" class="d">│</text><text font-size="1.67" x="10.02" y="71.142" class="d">└─&quot;</text><text font-size="1.67" x="14.027999999999999" y="71.142" class="d">(33)</text><text font-size="1.67" x="39.077999999999996" y="71.142" class="d">|</text><text font-size="1.67" x="47.093999999999994" y="71.142" class="d">&quot;</text><text font-size="1.67" x="2.004" y="73.313" class="d">│</text><text font-size="1.67" x="6.012" y="73.313" class="d">│</text><text font-size="1.67" x="8.016" y="73.313" class="d">├─:</text><text font-size="1.67" x="12.024" y="73.313" class="d">(34)</text><text font-size="1.67" x="39.077999999999996" y="73.313" class="d">|</text><text font-size="1.67" x="48.096" y="73.313" class="d">:</text><text font-size="1.67" x="2.004" y="75.48400000000001" class="d">│</text><text font-size="1.67" x="6.012" y="75.48400000000001" class="d">│</text><text font-size="1.67" x="8.016" y="75.48400000000001" class="d">└─string</text><text font-size="1.67" x="17.034" y="75.48400000000001" class="d">(35)</text><text font-size="1.67" x="39.077999999999996" y="75.48400000000001" class="d">|</text><text font-size="1.67" x="2.004" y="77.655" class="d">│</text><text font-size="1.67" x="6.012" y="77.655" class="d">│</text><text font-size="1.67" x="10.02" y="77.655" class="d">├─&quot;</text><text font-size="1.67" x="14.027999999999999" y="77.655" class="d">(36)</text><text font-size="1.67" x="39.077999999999996" y="77.655" class="d">|</text><text font-size="1.67" x="50.1" y="77.655" class="d">&quot;</text><text font-size="1.67" x="2.004" y="79.82600000000001" class="d">│</text><text font-size="1.67" x="6.012" y="79.82600000000001" class="d">│</text><text font-size="1.67" x="10.02" y="79.82600000000001" class="d">├─string_content</text><text font-size="1.67" x="27.054" y="79.82600000000001" class="d">(37)</text><text font-size="1.67" x="39.077999999999996" y="79.82600000000001" class="d">|</text><text font-size="1.67" x="51.102" y="79.82600000000001" class="d">string</text><text font-size="1.67" x="2.004" y="81.997" class="d">│</text><text font-size="1.67" x="6.012" y="81.997" class="d">│</text><text font-size="1.67" x="10.02" y="81.997" class="d">└─&quot;</text><text font-size="1.67" x="14.027999999999999" y="81.997" class="d">(38)</text><text font-size="1.67" x="39.077999999999996" y="81.997" class="d">|</text><text font-size="1.67" x="57.114" y="81.997" class="d">&quot;</text><text font-size="1.67" x="2.004" y="84.16799999999999" class="d">│</text><text font-size="1.67" x="6.012" y="84.16799999999999" class="d">└─}</text><text font-size="1.67" x="10.02" y="84.16799999999999" class="d">(39)</text><text font-size="1.67" x="38.07599999999999" y="84.16799999999999" class="d">8|</text><text font-size="1.67" x="42.083999999999996" y="84.16799999999999" class="d">}</text><text font-size="1.67" x="2.004" y="86.339" class="d">├─,</text><text font-size="1.67" x="6.012" y="86.339" class="d">(40)</text><text font-size="1.67" x="39.077999999999996" y="86.339" class="d">|</text><text font-size="1.67" x="43.086" y="86.339" class="d">,</text><text font-size="1.67" x="2.004" y="88.51" class="d">├─pair</text><text font-size="1.67" x="9.017999999999999" y="88.51" class="d">(41)</text><text font-size="1.67" x="38.07599999999999" y="88.51" class="d">9|</text><text font-size="1.67" x="2.004" y="90.681" class="d">│</text><text font-size="1.67" x="4.008" y="90.681" class="d">├─string</text><text font-size="1.67" x="13.026" y="90.681" class="d">(42)</text><text font-size="1.67" x="39.077999999999996" y="90.681" class="d">|</text><text font-size="1.67" x="2.004" y="92.852" class="d">│</text><text font-size="1.67" x="4.008" y="92.852" class="d">│</text><text font-size="1.67" x="6.012" y="92.852" class="d">├─&quot;</text><text font-size="1.67" x="10.02" y="92.852" class="d">(43)</text><text font-size="1.67" x="39.077999999999996" y="92.852" class="d">|</text><text font-size="1.67" x="42.083999999999996" y="92.852" class="d">&quot;</text><text font-size="1.67" x="2.004" y="95.02300000000001" class="d">│</text><text font-size="1.67" x="4.008" y="95.02300000000001" class="d">│</text><text font-size="1.67" x="6.012" y="95.02300000000001" class="d">├─string_content</text><text font-size="1.67" x="23.045999999999996" y="95.02300000000001" class="d">(44)</text><text font-size="1.67" x="39.077999999999996" y="95.02300000000001" class="d">|</text><text font-size="1.67" x="43.086" y="95.02300000000001" class="d">b</text><text font-size="1.67" x="2.004" y="97.19399999999999" class="d">│</text><text font-size="1.67" x="4.008" y="97.19399999999999" class="d">│</text><text font-size="1.67" x="6.012" y="97.19399999999999" class="d">└─&quot;</text><text font-size="1.67" x="10.02" y="97.19399999999999" class="d">(45)</text><text font-size="1.67" x="39.077999999999996" y="97.19399999999999" class="d">|</text><text font-size="1.67" x="44.087999999999994" y="97.19399999999999" class="d">&quot;</text><text font-size="1.67" x="2.004" y="99.365" class="d">│</text><text font-size="1.67" x="4.008" y="99.365" class="d">├─:</text><text font-size="1.67" x="8.016" y="99.365" class="d">(46)</text><text font-size="1.67" x="39.077999999999996" y="99.365" class="d">|</text><text font-size="1.67" x="45.089999999999996" y="99.365" class="d">:</text><text font-size="1.67" x="2.004" y="101.536" class="d">│</text><text font-size="1.67" x="4.008" y="101.536" class="d">└─array</text><text font-size="1.67" x="12.024" y="101.536" class="d">(47)</text><text font-size="1.67" x="39.077999999999996" y="101.536" class="d">|</text><text font-size="1.67" x="2.004" y="103.707" class="d">│</text><text font-size="1.67" x="6.012" y="103.707" class="d">├─[</text><text font-size="1.67" x="10.02" y="103.707" class="d">(48)</text><text font-size="1.67" x="39.077999999999996" y="103.707" class="d">|</text><text font-size="1.67" x="47.093999999999994" y="103.707" class="d">[</text><text font-size="1.67" x="2.004" y="105.878" class="d">│</text><text font-size="1.67" x="6.012" y="105.878" class="d">├─object</text><text font-size="1.67" x="15.029999999999998" y="105.878" class="d">(49)</text><text font-size="1.67" x="37.074" y="105.878" class="d">10|</text><text font-size="1.67" x="2.004" y="108.049" class="d">│</text><text font-size="1.67" x="6.012" y="108.049" class="d">│</text><text font-size="1.67" x="8.016" y="108.049" class="d">├─{</text><text font-size="1.67" x="12.024" y="108.049" class="d">(50)</text><text font-size="1.67" x="39.077999999999996" y="108.049" class="d">|</text><text font-size="1.67" x="44.087999999999994" y="108.049" class="d">{</text><text font-size="1.67" x="2.004" y="110.22" class="d">│</text><text font-size="1.67" x="6.012" y="110.22" class="d">│</text><text font-size="1.67" x="8.016" y="110.22" class="d">├─pair</text><text font-size="1.67" x="15.029999999999998" y="110.22" class="d">(51)</text><text font-size="1.67" x="37.074" y="110.22" class="d">11|</text><text font-size="1.67" x="2.004" y="112.391" class="d">│</text><text font-size="1.67" x="6.012" y="112.391" class="d">│</text><text font-size="1.67" x="8.016" y="112.391" class="d">│</text><text font-size="1.67" x="10.02" y="112.391" class="d">├─string</text><text font-size="1.67" x="19.037999999999997" y="112.391" class="d">(52)</text><text font-size="1.67" x="39.077999999999996" y="112.391" class="d">|</text><text font-size="1.67" x="2.004" y="114.56200000000001" class="d">│</text><text font-size="1.67" x="6.012" y="114.56200000000001" class="d">│</text><text font-size="1.67" x="8.016" y="114.56200000000001" class="d">│</text><text font-size="1.67" x="10.02" y="114.56200000000001" class="d">│</text><text font-size="1.67" x="12.024" y="114.56200000000001" class="d">├─&quot;</text><text font-size="1.67" x="16.032" y="114.56200000000001" class="d">(53)</text><text font-size="1.67" x="39.077999999999996" y="114.56200000000001" class="d">|</text><text font-size="1.67" x="46.09199999999999" y="114.56200000000001" class="d">&quot;</text><text font-size="1.67" x="2.004" y="116.73299999999999" class="d">│</text><text font-size="1.67" x="6.012" y="116.73299999999999" class="d">│</text><text font-size="1.67" x="8.016" y="116.73299999999999" class="d">│</text><text font-size="1.67" x="10.02" y="116.73299999999999" class="d">│</text><text font-size="1.67" x="12.024" y="116.73299999999999" class="d">├─string_content</text><text font-size="1.67" x="29.058" y="116.73299999999999" class="d">(54)</text><text font-size="1.67" x="39.077999999999996" y="116.73299999999999" class="d">|</text><text font-size="1.67" x="47.093999999999994" y="116.73299999999999" class="d">b11</text><text font-size="1.67" x="2.004" y="118.904" class="d">│</text><text font-size="1.67" x="6.012" y="118.904" class="d">│</text><text font-size="1.67" x="8.016" y="118.904" class="d">│</text><text font-size="1.67" x="10.02" y="118.904" class="d">│</text><text font-size="1.67" x="12.024" y="118.904" class="d">└─&quot;</text><text font-size="1.67" x="16.032" y="118.904" class="d">(55)</text><text font-size="1.67" x="39.077999999999996" y="118.904" class="d">|</text><text font-size="1.67" x="50.1" y="118.904" class="d">&quot;</text><text font-size="1.67" x="2.004" y="121.075" class="d">│</text><text font-size="1.67" x="6.012" y="121.075" class="d">│</text><text font-size="1.67" x="8.016" y="121.075" class="d">│</text><text font-size="1.67" x="10.02" y="121.075" class="d">├─:</text><text font-size="1.67" x="14.027999999999999" y="121.075" class="d">(56)</text><text font-size="1.67" x="39.077999999999996" y="121.075" class="d">|</text><text font-size="1.67" x="51.102" y="121.075" class="d">:</text><text font-size="1.67" x="2.004" y="123.246" class="d">│</text><text font-size="1.67" x="6.012" y="123.246" class="d">│</text><text font-size="1.67" x="8.016" y="123.246" class="d">│</text><text font-size="1.67" x="10.02" y="123.246" class="d">└─true</text><text font-size="1.67" x="17.034" y="123.246" class="d">(57)</text><text font-size="1.67" x="39.077999999999996" y="123.246" class="d">|</text><text font-size="1.67" x="53.105999999999995" y="123.246" class="d">true</text><text font-size="1.67" x="2.004" y="125.417" class="d">│</text><text font-size="1.67" x="6.012" y="125.417" class="d">│</text><text font-size="1.67" x="8.016" y="125.417" class="d">├─,</text><text font-size="1.67" x="12.024" y="125.417" class="d">(58)</text><text font-size="1.67" x="39.077999999999996" y="125.417" class="d">|</text><text font-size="1.67" x="57.114" y="125.417" class="d">,</text><text font-size="1.67" x="2.004" y="127.58800000000001" class="d">│</text><text font-size="1.67" x="6.012" y="127.58800000000001" class="d">│</text><text font-size="1.67" x="8.016" y="127.58800000000001" class="d">├─pair</text><text font-size="1.67" x="15.029999999999998" y="127.58800000000001" class="d">(59)</text><text font-size="1.67" x="37.074" y="127.58800000000001" class="d">12|</text><text font-size="1.67" x="2.004" y="129.759" class="d">│</text><text font-size="1.67" x="6.012" y="129.759" class="d">│</text><text font-size="1.67" x="8.016" y="129.759" class="d">│</text><text font-size="1.67" x="10.02" y="129.759" class="d">├─string</text><text font-size="1.67" x="19.037999999999997" y="129.759" class="d">(60)</text><text font-size="1.67" x="39.077999999999996" y="129.759" class="d">|</text><text font-size="1.67" x="2.004" y="131.92999999999998" class="d">│</text><text font-size="1.67" x="6.012" y="131.92999999999998" class="d">│</text><text font-size="1.67" x="8.016" y="131.92999999999998" class="d">│</text><text font-size="1.67" x="10.02" y="131.92999999999998" class="d">│</text><text font-size="1.67" x="12.024" y="131.92999999999998" class="d">├─&quot;</text><text font-size="1.67" x="16.032" y="131.92999999999998" class="d">(61)</text><text font-size="1.67" x="39.077999999999996" y="131.92999999999998" class="d">|</text><text font-size="1.67" x="46.09199999999999" y="131.92999999999998" class="d">&quot;</text><text font-size="1.67" x="2.004" y="134.10099999999997" class="d">│</text><text font-size="1.67" x="6.012" y="134.10099999999997" class="d">│</text><text font-size="1.67" x="8.016" y="134.10099999999997" class="d">│</text><text font-size="1.67" x="10.02" y="134.10099999999997" class="d">│</text><text font-size="1.67" x="12.024" y="134.10099999999997" class="d">├─string_content</text><text font-size="1.67" x="29.058" y="134.10099999999997" class="d">(62)</text><text font-size="1.67" x="39.077999999999996" y="134.10099999999997" class="d">|</text><text font-size="1.67" x="47.093999999999994" y="134.10099999999997" class="d">b12</text><text font-size="1.67" x="2.004" y="136.272" class="d">│</text><text font-size="1.67" x="6.012" y="136.272" class="d">│</text><text font-size="1.67" x="8.016" y="136.272" class="d">│</text><text font-size="1.67" x="10.02" y="136.272" class="d">│</text><text font-size="1.67" x="12.024" y="136.272" class="d">└─&quot;</text><text font-size="1.67" x="16.032" y="136.272" class="d">(63)</text><text font-size="1.67" x="39.077999999999996" y="136.272" class="d">|</text><text font-size="1.67" x="50.1" y="136.272" class="d">&quot;</text><text font-size="1.67" x="2.004" y="138.44299999999998" class="d">│</text><text font-size="1.67" x="6.012" y="138.44299999999998" class="d">│</text><text font-size="1.67" x="8.016" y="138.44299999999998" class="d">│</text><text font-size="1.67" x="10.02" y="138.44299999999998" class="d">├─:</text><text font-size="1.67" x="14.027999999999999" y="138.44299999999998" class="d">(64)</text><text font-size="1.67" x="39.077999999999996" y="138.44299999999998" class="d">|</text><text font-size="1.67" x="51.102" y="138.44299999999998" class="d">:</text><text font-size="1.67" x="2.004" y="140.61399999999998" class="d">│</text><text font-size="1.67" x="6.012" y="140.61399999999998" class="d">│</text><text font-size="1.67" x="8.016" y="140.61399999999998" class="d">│</text><text font-size="1.67" x="10.02" y="140.61399999999998" class="d">└─false</text><text font-size="1.67" x="18.035999999999998" y="140.61399999999998" class="d">(65)</text><text font-size="1.67" x="39.077999999999996" y="140.61399999999998" class="d">|</text><text font-size="1.67" x="53.105999999999995" y="140.61399999999998" class="d">false</text><text font-size="1.67" x="2.004" y="142.785" class="d">│</text><text font-size="1.67" x="6.012" y="142.785" class="d">│</text><text font-size="1.67" x="8.016" y="142.785" class="d">└─}</text><text font-size="1.67" x="12.024" y="142.785" class="d">(66)</text><text font-size="1.67" x="37.074" y="142.785" class="d">13|</text><text font-size="1.67" x="44.087999999999994" y="142.785" class="d">}</text><text font-size="1.67" x="2.004" y="144.956" class="d">│</text><text font-size="1.67" x="6.012" y="144.956" class="d">├─,</text><text font-size="1.67" x="10.02" y="144.956" class="d">(67)</text><text font-size="1.67" x="39.077999999999996" y="144.956" class="d">|</text><text font-size="1.67" x="45.089999999999996" y="144.956" class="d">,</text><text font-size="1.67" x="2.004" y="147.12699999999998" class="d">│</text><text font-size="1.67" x="6.012" y="147.12699999999998" class="d">├─object</text><text font-size="1.67" x="15.029999999999998" y="147.12699999999998" class="d">(68)</text><text font-size="1.67" x="37.074" y="147.12699999999998" class="d">14|</text><text font-size="1.67" x="2.004" y="149.298" class="d">│</text><text font-size="1.67" x="6.012" y="149.298" class="d">│</text><text font-size="1.67" x="8.016" y="149.298" class="d">├─{</text><text font-size="1.67" x="12.024" y="149.298" class="d">(69)</text><text font-size="1.67" x="39.077999999999996" y="149.298" class="d">|</text><text font-size="1.67" x="44.087999999999994" y="149.298" class="d">{</text><text font-size="1.67" x="2.004" y="151.46899999999997" class="d">│</text><text font-size="1.67" x="6.012" y="151.46899999999997" class="d">│</text><text font-size="1.67" x="8.016" y="151.46899999999997" class="d">├─pair</text><text font-size="1.67" x="15.029999999999998" y="151.46899999999997" class="d">(70)</text><text font-size="1.67" x="37.074" y="151.46899999999997" class="d">15|</text><text font-size="1.67" x="2.004" y="153.64" class="d">│</text><text font-size="1.67" x="6.012" y="153.64" class="d">│</text><text font-size="1.67" x="8.016" y="153.64" class="d">│</text><text font-size="1.67" x="10.02" y="153.64" class="d">├─string</text><text font-size="1.67" x="19.037999999999997" y="153.64" class="d">(71)</text><text font-size="1.67" x="39.077999999999996" y="153.64" class="d">|</text><text font-size="1.67" x="2.004" y="155.81099999999998" class="d">│</text><text font-size="1.67" x="6.012" y="155.81099999999998" class="d">│</text><text font-size="1.67" x="8.016" y="155.81099999999998" class="d">│</text><text font-size="1.67" x="10.02" y="155.81099999999998" class="d">│</text><text font-size="1.67" x="12.024" y="155.81099999999998" class="d">├─&quot;</text><text font-size="1.67" x="16.032" y="155.81099999999998" class="d">(72)</text><text font-size="1.67" x="39.077999999999996" y="155.81099999999998" class="d">|</text><text font-size="1.67" x="46.09199999999999" y="155.81099999999998" class="d">&quot;</text><text font-size="1.67" x="2.004" y="157.982" class="d">│</text><text font-size="1.67" x="6.012" y="157.982" class="d">│</text><text font-size="1.67" x="8.016" y="157.982" class="d">│</text><text font-size="1.67" x="10.02" y="157.982" class="d">│</text><text font-size="1.67" x="12.024" y="157.982" class="d">├─string_content</text><text font-size="1.67" x="29.058" y="157.982" class="d">(73)</text><text font-size="1.67" x="39.077999999999996" y="157.982" class="d">|</text><text font-size="1.67" x="47.093999999999994" y="157.982" class="d">b21</text><text font-size="1.67" x="2.004" y="160.153" class="d">│</text><text font-size="1.67" x="6.012" y="160.153" class="d">│</text><text font-size="1.67" x="8.016" y="160.153" class="d">│</text><text font-size="1.67" x="10.02" y="160.153" class="d">│</text><text font-size="1.67" x="12.024" y="160.153" class="d">└─&quot;</text><text font-size="1.67" x="16.032" y="160.153" class="d">(74)</text><text font-size="1.67" x="39.077999999999996" y="160.153" class="d">|</text><text font-size="1.67" x="50.1" y="160.153" class="d">&quot;</text><text font-size="1.67" x="2.004" y="162.32399999999998" class="d">│</text><text font-size="1.67" x="6.012" y="162.32399999999998" class="d">│</text><text font-size="1.67" x="8.016" y="162.32399999999998" class="d">│</text><text font-size="1.67" x="10.02" y="162.32399999999998" class="d">├─:</text><text font-size="1.67" x="14.027999999999999" y="162.32399999999998" class="d">(75)</text><text font-size="1.67" x="39.077999999999996" y="162.32399999999998" class="d">|</text><text font-size="1.67" x="51.102" y="162.32399999999998" class="d">:</text><text font-size="1.67" x="2.004" y="164.495" class="d">│</text><text font-size="1.67" x="6.012" y="164.495" class="d">│</text><text font-size="1.67" x="8.016" y="164.495" class="d">│</text><text font-size="1.67" x="10.02" y="164.495" class="d">└─false</text><text font-size="1.67" x="18.035999999999998" y="164.495" class="d">(76)</text><text font-size="1.67" x="39.077999999999996" y="164.495" class="d">|</text><text font-size="1.67" x="53.105999999999995" y="164.495" class="d">false</text><text font-size="1.67" x="2.004" y="166.66599999999997" class="d">│</text><text font-size="1.67" x="6.012" y="166.66599999999997" class="d">│</text><text font-size="1.67" x="8.016" y="166.66599999999997" class="d">├─,</text><text font-size="1.67" x="12.024" y="166.66599999999997" class="d">(77)</text><text font-size="1.67" x="39.077999999999996" y="166.66599999999997" class="d">|</text><text font-size="1.67" x="58.116" y="166.66599999999997" class="d">,</text><text font-size="1.67" x="2.004" y="168.837" class="d">│</text><text font-size="1.67" x="6.012" y="168.837" class="d">│</text><text font-size="1.67" x="8.016" y="168.837" class="d">├─pair</text><text font-size="1.67" x="15.029999999999998" y="168.837" class="d">(78)</text><text font-size="1.67" x="37.074" y="168.837" class="d">16|</text><text font-size="1.67" x="2.004" y="171.00799999999998" class="d">│</text><text font-size="1.67" x="6.012" y="171.00799999999998" class="d">│</text><text font-size="1.67" x="8.016" y="171.00799999999998" class="d">│</text><text font-size="1.67" x="10.02" y="171.00799999999998" class="d">├─string</text><text font-size="1.67" x="19.037999999999997" y="171.00799999999998" class="d">(79)</text><text font-size="1.67" x="39.077999999999996" y="171.00799999999998" class="d">|</text><text font-size="1.67" x="2.004" y="173.179" class="d">│</text><text font-size="1.67" x="6.012" y="173.179" class="d">│</text><text font-size="1.67" x="8.016" y="173.179" class="d">│</text><text font-size="1.67" x="10.02" y="173.179" class="d">│</text><text font-size="1.67" x="12.024" y="173.179" class="d">├─&quot;</text><text font-size="1.67" x="16.032" y="173.179" class="d">(80)</text><text font-size="1.67" x="39.077999999999996" y="173.179" class="d">|</text><text font-size="1.67" x="46.09199999999999" y="173.179" class="d">&quot;</text><text font-size="1.67" x="2.004" y="175.35" class="d">│</text><text font-size="1.67" x="6.012" y="175.35" class="d">│</text><text font-size="1.67" x="8.016" y="175.35" class="d">│</text><text font-size="1.67" x="10.02" y="175.35" class="d">│</text><text font-size="1.67" x="12.024" y="175.35" class="d">├─string_content</text><text font-size="1.67" x="29.058" y="175.35" class="d">(81)</text><text font-size="1.67" x="39.077999999999996" y="175.35" class="d">|</text><text font-size="1.67" x="47.093999999999994" y="175.35" class="d">b22</text><text font-size="1.67" x="2.004" y="177.52099999999996" class="d">│</text><text font-size="1.67" x="6.012" y="177.52099999999996" class="d">│</text><text font-size="1.67" x="8.016" y="177.52099999999996" class="d">│</text><text font-size="1.67" x="10.02" y="177.52099999999996" class="d">│</text><text font-size="1.67" x="12.024" y="177.52099999999996" class="d">└─&quot;</text><text font-size="1.67" x="16.032" y="177.52099999999996" class="d">(82)</text><text font-size="1.67" x="39.077999999999996" y="177.52099999999996" class="d">|</text><text font-size="1.67" x="50.1" y="177.52099999999996" class="d">&quot;</text><text font-size="1.67" x="2.004" y="179.69199999999998" class="d">│</text><text font-size="1.67" x="6.012" y="179.69199999999998" class="d">│</text><text font-size="1.67" x="8.016" y="179.69199999999998" class="d">│</text><text font-size="1.67" x="10.02" y="179.69199999999998" class="d">├─:</text><text font-size="1.67" x="14.027999999999999" y="179.69199999999998" class="d">(83)</text><text font-size="1.67" x="39.077999999999996" y="179.69199999999998" class="d">|</text><text font-size="1.67" x="51.102" y="179.69199999999998" class="d">:</text><text font-size="1.67" x="2.004" y="181.86299999999997" class="d">│</text><text font-size="1.67" x="6.012" y="181.86299999999997" class="d">│</text><text font-size="1.67" x="8.016" y="181.86299999999997" class="d">│</text><text font-size="1.67" x="10.02" y="181.86299999999997" class="d">└─false</text><text font-size="1.67" x="18.035999999999998" y="181.86299999999997" class="d">(84)</text><text font-size="1.67" x="39.077999999999996" y="181.86299999999997" class="d">|</text><text font-size="1.67" x="53.105999999999995" y="181.86299999999997" class="d">false</text><text font-size="1.67" x="2.004" y="184.034" class="d">│</text><text font-size="1.67" x="6.012" y="184.034" class="d">│</text><text font-size="1.67" x="8.016" y="184.034" class="d">└─}</text><text font-size="1.67" x="12.024" y="184.034" class="d">(85)</text><text font-size="1.67" x="37.074" y="184.034" class="d">17|</text><text font-size="1.67" x="44.087999999999994" y="184.034" class="d">}</text><text font-size="1.67" x="2.004" y="186.20499999999998" class="d">│</text><text font-size="1.67" x="6.012" y="186.20499999999998" class="d">└─]</text><text font-size="1.67" x="10.02" y="186.20499999999998" class="d">(86)</text><text font-size="1.67" x="37.074" y="186.20499999999998" class="d">18|</text><text font-size="1.67" x="42.083999999999996" y="186.20499999999998" class="d">]</text><text font-size="1.67" x="2.004" y="188.376" class="d">└─}</text><text font-size="1.67" x="6.012" y="188.376" class="d">(87)</text><text font-size="1.67" x="37.074" y="188.376" class="d">19|}</text></svg></svg></g></svg></svg>