<svg xmlns="http://www.w3.org/2000/svg" xmlns:xlink="http://www.w3.org/1999/xlink" width="840" height="821.5600000000001"><rect width="840" height="821.5600000000001" rx="0" ry="0" class="a"></rect><svg height="781.5600000000001" viewBox="0 0 80 78.156" width="800" x="20" xmlns="http://www.w3.org/2000/svg" xmlns:xlink="http://www.w3.org/1999/xlink" y="20"><style>.a{fill:rgb(22,27,34)}.b{font-family:'Fira Code',Monaco,Consolas,Menlo,'Bitstream Vera Sans Mono','Powerline Symbols',monospace}.c{fill:rgb(201,209,217);white-space:pre}.d{fill:transparent}</style><g font-family="&#x27;Fira Code&#x27;,Monaco,Consolas,Menlo,&#x27;Bitstream Vera Sans Mono&#x27;,&#x27;Powerline Symbols&#x27;,monospace" font-size="1.67" class="b"><defs><symbol id="1"><text font-size="1.67" x="0" y="1.67" class="c">[1]</text><text font-size="1.67" x="4.008" y="1.67" class="c">FALSE</text></symbol><symbol id="a"><rect height="36" width="80" x="0" y="0" class="d"></rect></symbol></defs><rect height="78.156" width="80" class="a"></rect><svg x="0" y="0" width="80"><svg x="0"><use xlink:href="#a"></use><text font-size="1.67" x="0" y="1.67" class="c">[[1]]</text><text font-size="1.67" x="0" y="3.8409999999999997" class="c">[[1]]$a</text><text font-size="1.67" x="0" y="6.012" class="c">[[1]]$a$a1</text><text font-size="1.67" x="0" y="8.183" class="c">[[1]]$a$a1[[1]]</text><text font-size="1.67" x="0" y="10.354" class="c">[1]</text><text font-size="1.67" x="4.008" y="10.354" class="c">1</text><text font-size="1.67" x="0" y="14.696" class="c">[[1]]$a$a1[[2]]</text><text font-size="1.67" x="0" y="16.866999999999997" class="c">[1]</text><text font-size="1.67" x="4.008" y="16.866999999999997" class="c">2</text><text font-size="1.67" x="0" y="21.209000000000003" class="c">[[1]]$a$a1[[3]]</text><text font-size="1.67" x="0" y="23.380000000000003" class="c">[1]</text><text font-size="1.67" x="4.008" y="23.380000000000003" class="c">3</text><text font-size="1.67" x="0" y="29.893" class="c">[[1]]$a$a2</text><text font-size="1.67" x="0" y="32.064" class="c">[1]</text><text font-size="1.67" x="4.008" y="32.064" class="c">&quot;string&quot;</text><text font-size="1.67" x="0" y="38.577000000000005" class="c">[[1]]$b</text><text font-size="1.67" x="0" y="40.748000000000005" class="c">[[1]]$b[[1]]</text><text font-size="1.67" x="0" y="42.919" class="c">[[1]]$b[[1]]$b11</text><text font-size="1.67" x="0" y="45.09" class="c">[1]</text><text font-size="1.67" x="4.008" y="45.09" class="c">TRUE</text><text font-size="1.67" x="0" y="49.431999999999995" class="c">[[1]]$b[[1]]$b12</text><use xlink:href="#1" y="49.933"></use><text font-size="1.67" x="0" y="58.11600000000001" class="c">[[1]]$b[[2]]</text><text font-size="1.67" x="0" y="60.287" class="c">[[1]]$b[[2]]$b21</text><use xlink:href="#1" y="60.788"></use><text font-size="1.67" x="0" y="66.8" class="c">[[1]]$b[[2]]$b22</text><use xlink:href="#1" y="67.301"></use></svg></svg></g></svg></svg>