<svg xmlns="http://www.w3.org/2000/svg" xmlns:xlink="http://www.w3.org/1999/xlink" width="840" height="365.65"><rect width="840" height="365.65" rx="0" ry="0" class="a"></rect><svg height="325.65" viewBox="0 0 80 32.565" width="800" x="20" xmlns="http://www.w3.org/2000/svg" xmlns:xlink="http://www.w3.org/1999/xlink" y="20"><style>.a{fill:rgb(22,27,34)}.b{font-family:'Fira Code',Monaco,Consolas,Menlo,'Bitstream Vera Sans Mono','Powerline Symbols',monospace}.c{fill:transparent}.d{fill:rgb(201,209,217);white-space:pre}.e{fill:rgb(117,113,94);white-space:pre}</style><g font-family="&#x27;Fira Code&#x27;,Monaco,Consolas,Menlo,&#x27;Bitstream Vera Sans Mono&#x27;,&#x27;Powerline Symbols&#x27;,monospace" font-size="1.67" class="b"><defs><symbol id="a"><rect height="15" width="80" x="0" y="0" class="c"></rect></symbol></defs><rect height="32.565" width="80" class="a"></rect><svg x="0" y="0" width="80"><svg x="0"><use xlink:href="#a"></use><text font-size="1.67" x="0" y="1.67" class="d">document</text><text font-size="1.67" x="9.017999999999999" y="1.67" class="d">(1)</text><text font-size="1.67" x="0" y="3.8409999999999997" class="d">└─object</text><text font-size="1.67" x="9.017999999999999" y="3.8409999999999997" class="d">(3)</text><text font-size="1.67" x="2.004" y="6.012" class="d">├─object</text><text font-size="1.67" x="11.021999999999998" y="6.012" class="d">(11)</text><text font-size="1.67" x="16.032" y="6.012" class="e">#</text><text font-size="1.67" x="18.035999999999998" y="6.012" class="e">a</text><text font-size="1.67" x="2.004" y="8.183" class="d">│</text><text font-size="1.67" x="4.008" y="8.183" class="d">├─array</text><text font-size="1.67" x="12.024" y="8.183" class="d">(19)</text><text font-size="1.67" x="17.034" y="8.183" class="e">#</text><text font-size="1.67" x="19.037999999999997" y="8.183" class="e">a1</text><text font-size="1.67" x="2.004" y="10.354" class="d">│</text><text font-size="1.67" x="4.008" y="10.354" class="d">│</text><text font-size="1.67" x="6.012" y="10.354" class="d">├─number</text><text font-size="1.67" x="15.029999999999998" y="10.354" class="d">(21)</text><text font-size="1.67" x="2.004" y="12.525" class="d">│</text><text font-size="1.67" x="4.008" y="12.525" class="d">│</text><text font-size="1.67" x="6.012" y="12.525" class="d">├─number</text><text font-size="1.67" x="15.029999999999998" y="12.525" class="d">(23)</text><text font-size="1.67" x="2.004" y="14.696" class="d">│</text><text font-size="1.67" x="4.008" y="14.696" class="d">│</text><text font-size="1.67" x="6.012" y="14.696" class="d">└─number</text><text font-size="1.67" x="15.029999999999998" y="14.696" class="d">(25)</text><text font-size="1.67" x="2.004" y="16.866999999999997" class="d">│</text><text font-size="1.67" x="4.008" y="16.866999999999997" class="d">└─string</text><text font-size="1.67" x="13.026" y="16.866999999999997" class="d">(35)</text><text font-size="1.67" x="18.035999999999998" y="16.866999999999997" class="e">#</text><text font-size="1.67" x="20.04" y="16.866999999999997" class="e">a2</text><text font-size="1.67" x="2.004" y="19.037999999999997" class="d">└─array</text><text font-size="1.67" x="10.02" y="19.037999999999997" class="d">(47)</text><text font-size="1.67" x="15.029999999999998" y="19.037999999999997" class="e">#</text><text font-size="1.67" x="17.034" y="19.037999999999997" class="e">b</text><text font-size="1.67" x="4.008" y="21.209000000000003" class="d">├─object</text><text font-size="1.67" x="13.026" y="21.209000000000003" class="d">(49)</text><text font-size="1.67" x="4.008" y="23.380000000000003" class="d">│</text><text font-size="1.67" x="6.012" y="23.380000000000003" class="d">├─true</text><text font-size="1.67" x="13.026" y="23.380000000000003" class="d">(57)</text><text font-size="1.67" x="18.035999999999998" y="23.380000000000003" class="e">#</text><text font-size="1.67" x="20.04" y="23.380000000000003" class="e">b11</text><text font-size="1.67" x="4.008" y="25.550999999999995" class="d">│</text><text font-size="1.67" x="6.012" y="25.550999999999995" class="d">└─false</text><text font-size="1.67" x="14.027999999999999" y="25.550999999999995" class="d">(65)</text><text font-size="1.67" x="19.037999999999997" y="25.550999999999995" class="e">#</text><text font-size="1.67" x="21.041999999999998" y="25.550999999999995" class="e">b12</text><text font-size="1.67" x="4.008" y="27.722" class="d">└─object</text><text font-size="1.67" x="13.026" y="27.722" class="d">(68)</text><text font-size="1.67" x="6.012" y="29.893" class="d">├─false</text><text font-size="1.67" x="14.027999999999999" y="29.893" class="d">(76)</text><text font-size="1.67" x="19.037999999999997" y="29.893" class="e">#</text><text font-size="1.67" x="21.041999999999998" y="29.893" class="e">b21</text><text font-size="1.67" x="6.012" y="32.064" class="d">└─false</text><text font-size="1.67" x="14.027999999999999" y="32.064" class="d">(84)</text><text font-size="1.67" x="19.037999999999997" y="32.064" class="e">#</text><text font-size="1.67" x="21.041999999999998" y="32.064" class="e">b22</text></svg></svg></g></svg></svg>