<svg xmlns="http://www.w3.org/2000/svg" xmlns:xlink="http://www.w3.org/1999/xlink" width="840" height="365.65"><rect width="840" height="365.65" rx="0" ry="0" class="a"></rect><svg height="325.65" viewBox="0 0 80 32.565" width="800" x="20" xmlns="http://www.w3.org/2000/svg" xmlns:xlink="http://www.w3.org/1999/xlink" y="20"><style>.a{fill:rgb(247,247,247)}.b{font-family:'Fira Code',Monaco,Consolas,Menlo,'Bitstream Vera Sans Mono','Powerline Symbols',monospace}.c{fill:transparent}.d{fill:rgb(101,123,131);white-space:pre}.e{fill:rgb(0,43,54);white-space:pre}</style><g font-family="&#x27;Fira Code&#x27;,Monaco,Consolas,Menlo,&#x27;Bitstream Vera Sans Mono&#x27;,&#x27;Powerline Symbols&#x27;,monospace" font-size="1.67" class="b"><defs><symbol id="a"><rect height="15" width="80" x="0" y="0" class="c"></rect></symbol></defs><rect height="32.565" width="80" class="a"></rect><svg x="0" y="0" width="80"><svg x="0"><use xlink:href="#a"></use><text font-size="1.67" x="0" y="1.67" class="d">Error</text><text font-size="1.67" x="6.012" y="1.67" class="d">in</text><text font-size="1.67" x="9.017999999999999" y="1.67" class="d">ts_parse_jsonc(text</text><text font-size="1.67" x="29.058" y="1.67" class="d">=</text><text font-size="1.67" x="31.061999999999998" y="1.67" class="d">&quot;{</text><text font-size="1.67" x="34.068" y="1.67" class="d">\&quot;a\&quot;:</text><text font-size="1.67" x="41.082" y="1.67" class="d">{</text><text font-size="1.67" x="43.086" y="1.67" class="d">\&quot;b\&quot;:</text><text font-size="1.67" x="50.1" y="1.67" class="d">true</text><text font-size="1.67" x="55.10999999999999" y="1.67" class="d">}</text><text font-size="1.67" x="57.114" y="1.67" class="d">}&quot;)</text><text font-size="1.67" x="61.12199999999999" y="1.67" class="d">:</text><text font-size="1.67" x="2.004" y="3.8409999999999997" class="d">could</text><text font-size="1.67" x="8.016" y="3.8409999999999997" class="d">not</text><text font-size="1.67" x="12.024" y="3.8409999999999997" class="d">find</text><text font-size="1.67" x="17.034" y="3.8409999999999997" class="d">function</text><text font-size="1.67" x="26.052" y="3.8409999999999997" class="d">&quot;ts_parse_jsonc&quot;</text><text font-size="1.67" x="0" y="6.012" class="e">#</text><text font-size="1.67" x="2.004" y="6.012" class="e">jsonc</text><text font-size="1.67" x="8.016" y="6.012" class="e">(19</text><text font-size="1.67" x="12.024" y="6.012" class="e">lines)</text><text font-size="1.67" x="1.002" y="8.183" class="e">1</text><text font-size="1.67" x="3.006" y="8.183" class="e">|</text><text font-size="1.67" x="1.002" y="10.354" class="e">2</text><text font-size="1.67" x="3.006" y="10.354" class="e">|</text><text font-size="1.67" x="5.01" y="10.354" class="d">//</text><text font-size="1.67" x="8.016" y="10.354" class="d">this</text><text font-size="1.67" x="13.026" y="10.354" class="d">is</text><text font-size="1.67" x="16.032" y="10.354" class="d">a</text><text font-size="1.67" x="18.035999999999998" y="10.354" class="d">comment</text><text font-size="1.67" x="1.002" y="12.525" class="e">3</text><text font-size="1.67" x="3.006" y="12.525" class="e">|</text><text font-size="1.67" x="5.01" y="12.525" class="d">{</text><text font-size="1.67" x="1.002" y="14.696" class="e">4</text><text font-size="1.67" x="3.006" y="14.696" class="e">|</text><text font-size="1.67" x="7.013999999999999" y="14.696" class="d">&quot;a&quot;:</text><text font-size="1.67" x="12.024" y="14.696" class="d">{</text><text font-size="1.67" x="1.002" y="16.866999999999997" class="e">5</text><text font-size="1.67" x="3.006" y="16.866999999999997" class="e">|</text><text font-size="1.67" x="9.017999999999999" y="16.866999999999997" class="d">&quot;a1&quot;:</text><text font-size="1.67" x="15.029999999999998" y="16.866999999999997" class="d">[1,</text><text font-size="1.67" x="19.037999999999997" y="16.866999999999997" class="d">2,</text><text font-size="1.67" x="22.043999999999997" y="16.866999999999997" class="d">3],</text><text font-size="1.67" x="1.002" y="19.037999999999997" class="e">6</text><text font-size="1.67" x="3.006" y="19.037999999999997" class="e">|</text><text font-size="1.67" x="9.017999999999999" y="19.037999999999997" class="d">//</text><text font-size="1.67" x="12.024" y="19.037999999999997" class="d">comment</text><text font-size="1.67" x="1.002" y="21.209000000000003" class="e">7</text><text font-size="1.67" x="3.006" y="21.209000000000003" class="e">|</text><text font-size="1.67" x="9.017999999999999" y="21.209000000000003" class="d">&quot;a2&quot;:</text><text font-size="1.67" x="15.029999999999998" y="21.209000000000003" class="d">&quot;string&quot;</text><text font-size="1.67" x="1.002" y="23.380000000000003" class="e">8</text><text font-size="1.67" x="3.006" y="23.380000000000003" class="e">|</text><text font-size="1.67" x="7.013999999999999" y="23.380000000000003" class="d">},</text><text font-size="1.67" x="1.002" y="25.550999999999995" class="e">9</text><text font-size="1.67" x="3.006" y="25.550999999999995" class="e">|</text><text font-size="1.67" x="7.013999999999999" y="25.550999999999995" class="d">&quot;b&quot;:</text><text font-size="1.67" x="12.024" y="25.550999999999995" class="d">[</text><text font-size="1.67" x="0" y="27.722" class="e">10</text><text font-size="1.67" x="3.006" y="27.722" class="e">|</text><text font-size="1.67" x="9.017999999999999" y="27.722" class="d">{</text><text font-size="1.67" x="0" y="29.893" class="e">ℹ</text><text font-size="1.67" x="2.004" y="29.893" class="e">9</text><text font-size="1.67" x="4.008" y="29.893" class="e">more</text><text font-size="1.67" x="9.017999999999999" y="29.893" class="e">lines</text><text font-size="1.67" x="0" y="32.064" class="e">ℹ</text><text font-size="1.67" x="2.004" y="32.064" class="e">Use</text><text font-size="1.67" x="6.012" y="32.064" class="e">`print(n</text><text font-size="1.67" x="15.029999999999998" y="32.064" class="e">=</text><text font-size="1.67" x="17.034" y="32.064" class="e">...)`</text><text font-size="1.67" x="23.045999999999996" y="32.064" class="e">to</text><text font-size="1.67" x="26.052" y="32.064" class="e">see</text><text font-size="1.67" x="30.059999999999995" y="32.064" class="e">more</text><text font-size="1.67" x="35.06999999999999" y="32.064" class="e">lines</text></svg></svg></g></svg></svg>